<svg xmlns="http://www.w3.org/2000/svg" viewBox="0 0 443.41 512"><defs><style>.a{fill:#b5bd68;}.a,.b,.c{fill-rule:evenodd;}.b{fill:#81a2be;}.c{fill:#e52a57;}.d,.e{fill:none;stroke:#202020;stroke-linecap:round;stroke-miterlimit:10;}.d{stroke-width:25px;}.e{stroke-width:35px;}.f{fill:#fff;}.g{fill:#202020;}</style></defs><title>pluginIcon</title><polygon class="a" points="408.24 363.95 408.24 147.96 221.18 39.96 34.12 147.96 34.12 363.95 221.18 471.95 408.24 363.95"/><polygon class="b" points="277.76 157.95 164.59 157.95 108.01 255.96 164.59 353.96 277.76 353.96 334.35 255.96 277.76 157.95"/><polygon class="c" points="242.12 220.6 201.29 220.6 180.88 255.96 201.29 291.31 242.12 291.31 262.53 255.96 242.12 220.6"/><line class="d" x1="295.7" y1="298.73" x2="246.48" y2="213.29"/><line class="d" x1="295.9" y1="213.28" x2="197.14" y2="213.29"/><line class="d" x1="246.56" y1="298.74" x2="147.81" y2="298.78"/><line class="d" x1="221.88" y1="170.58" x2="172.39" y2="256.01"/><line class="d" x1="197.1" y1="298.75" x2="147.64" y2="213.3"/><line class="d" x1="221.86" y1="341.53" x2="271.09" y2="256.26"/><line class="e" x1="52.27" y1="353.98" x2="165.21" y2="157.93"/><line class="e" x1="51.8" y1="157.91" x2="278.43" y2="157.94"/><line class="e" x1="165.03" y1="354.02" x2="391.6" y2="354.09"/><line class="e" x1="221.66" y1="59.94" x2="335.2" y2="255.95"/><line class="e" x1="278.51" y1="354.03" x2="391.99" y2="157.95"/><line class="e" x1="221.7" y1="452.18" x2="108.74" y2="256.53"/><path class="f" d="M256.15,49.69,434.82,152.84V359.16L256.15,462.31,77.48,359.16V152.84L256.15,49.69m0-49.69L34.44,128V384l221.7,128,221.7-128V128L256.15,0Z" transform="translate(-34.44)"/><path class="g" d="M256.15,59.82,426,157.91V354.09l-169.9,98.09L86.25,354.09V157.91l169.9-98.09m0-47.25L45.33,134.29V377.71L256.15,499.43,467,377.71V134.29L256.15,12.57Z" transform="translate(-34.44)"/></svg>